<?xml version="1.0" encoding="UTF-8"?>
<svg version="1.1" xmlns="http://www.w3.org/2000/svg" width="1481" height="2049">
<path d="M0 0 C1.35935502 -0.02077954 2.71870441 -0.04192966 4.07804844 -0.0634158 C7.82009594 -0.12129572 11.56220474 -0.17332156 15.30435387 -0.22414961 C18.5373219 -0.26867856 21.77024192 -0.31629043 25.003167 -0.36382038 C34.86340889 -0.50858312 44.72377073 -0.64364096 54.58418381 -0.77615631 C59.38277439 -0.84067319 64.18134556 -0.90652611 68.97991224 -0.97279427 C117.51151756 -1.64258256 166.04354592 -2.19090647 214.57822704 -2.58060932 C216.26392107 -2.59416529 216.26392107 -2.59416529 217.98366951 -2.60799511 C242.40797318 -2.80378357 266.83236549 -2.98415269 291.25691326 -3.14662273 C303.22966229 -3.22629263 315.2023889 -3.30907118 327.17510509 -3.39352131 C328.36634832 -3.40186852 329.55759154 -3.41021573 330.78493304 -3.41881589 C369.27577675 -3.69006648 407.76003864 -4.17852275 446.24697691 -4.78274322 C485.88150303 -5.40383493 525.51241119 -5.8036703 565.15173726 -5.93207493 C570.7754988 -5.950387 576.39924876 -5.97116125 582.02299595 -5.99343014 C583.12957351 -5.99773356 584.23615108 -6.00203697 585.3762613 -6.0064708 C600.8651287 -6.072226 616.34532123 -6.29087449 631.83052939 -6.62970429 C657.75006907 -7.19678319 683.65505693 -7.50312888 709.58037853 -7.2011385 C710.54165099 -7.19048678 711.50292344 -7.17983505 712.49332537 -7.16886055 C795.2537679 -6.17103362 795.2537679 -6.17103362 826.68337059 24.27640343 C856.76665783 55.17668459 856.76665783 55.17668459 856.76665783 68.30740643 C857.42665783 68.30740643 858.08665783 68.30740643 858.76665783 68.30740643 C860.25440502 69.81459999 860.25440502 69.81459999 861.96709728 71.87575054 C865.33870789 75.83784755 868.87128655 79.54804921 872.55962658 83.21390057 C873.20586987 83.86029271 873.85211315 84.50668486 874.51793957 85.17266464 C876.66097851 87.31501502 878.80755866 89.45378008 880.95415783 91.59256268 C882.50068617 93.13716975 884.04698544 94.68200621 885.59307384 96.22705364 C888.91187247 99.54270105 892.23221597 102.85679072 895.5537672 106.1696806 C900.80978133 111.41212943 906.06194084 116.65842866 911.31353283 121.90530682 C922.46161424 133.04230573 933.61391021 144.17508075 944.76665783 155.30740643 C956.80840082 167.32709962 968.84939977 179.34753383 980.8855238 191.37285423 C986.10228528 196.58464402 991.32147298 201.79398804 996.54255199 207.00145245 C999.79378899 210.24521148 1003.04293615 213.49105769 1006.29152966 216.73746395 C1007.79383566 218.23790362 1009.29700303 219.73748143 1010.80111217 221.23611355 C1012.86097895 223.28871763 1014.91768776 225.34443737 1016.97368908 227.40091228 C1017.56329418 227.98692243 1018.15289928 228.57293257 1018.76037121 229.17670059 C1021.70284058 232.12639139 1024.5216249 235.13684443 1027.2476759 238.28842449 C1030.63144759 242.19775612 1034.19785125 245.87335383 1037.86333752 249.5176115 C1038.54224922 250.19667207 1039.22116093 250.87573263 1039.92064571 251.57537079 C1042.17424077 253.82827673 1044.43137919 256.07759748 1046.68853283 258.32693768 C1048.31387781 259.95036159 1049.93899386 261.57401473 1051.56389904 263.19787884 C1055.05294541 266.683773 1058.54353723 270.16810949 1062.03533459 273.65124798 C1067.56018568 279.16253893 1073.08118687 284.67767577 1078.60161877 290.19339275 C1086.34401077 297.92846131 1094.08779132 305.66213648 1101.83306408 313.39432049 C1102.32371145 313.88414004 1102.81435882 314.3739596 1103.31987429 314.87862217 C1106.80208549 318.35493366 1110.28436384 321.83117787 1113.76665783 325.30740643 C1117.74456875 329.27838866 1121.72244927 333.24940133 1125.70025158 337.22049236 C1126.19029596 337.70970862 1126.68034034 338.19892487 1127.18523455 338.70296586 C1135.3696963 346.87371958 1143.55215661 355.04647439 1151.73326015 363.22059059 C1157.21763465 368.69999184 1162.70443624 374.1769474 1168.19312572 379.65202618 C1171.61043299 383.06185811 1175.02565285 386.47377491 1178.44031811 389.8862524 C1180.02002722 391.46409438 1181.60059812 393.04107411 1183.18210888 394.61711025 C1185.34706984 396.77481447 1187.50887992 398.93562928 1189.66997814 401.09720135 C1190.29071083 401.71433908 1190.91144352 402.3314768 1191.55098629 402.96731567 C1196.36599119 407.79357743 1196.36599119 407.79357743 1198.15806789 410.09179965 C1202.91981153 416.15285421 1208.87310513 419.92284098 1215.32385994 423.96481419 C1271.05122194 459.16128276 1335.56732212 511.16759997 1350.83762442 578.35240362 C1359.38306757 617.6785529 1360.27012278 658.49249673 1360.83721447 698.57522869 C1360.85560648 699.80833319 1360.85560648 699.80833319 1360.87437004 701.06634889 C1361.51568614 744.22712558 1360.83199336 787.34206463 1359.64493405 830.48712672 C1358.8709021 858.62345123 1358.43243357 886.744641 1358.30010319 914.8913126 C1358.29326154 916.30349192 1358.29326154 916.30349192 1358.28628168 917.74420011 C1358.24474357 926.34698265 1358.20675698 934.94977773 1358.17303947 943.55259451 C1358.08925185 964.91229489 1357.96020227 986.27159216 1357.79998207 1007.63085365 C1357.79273216 1008.60210692 1357.78548225 1009.57336019 1357.77801264 1010.57404537 C1357.4237864 1057.49557279 1356.54667737 1104.40519324 1355.62334728 1151.31839275 C1355.3043996 1167.53755639 1354.98790718 1183.75676232 1354.68151379 1199.97616863 C1354.66250536 1200.9823735 1354.64349693 1201.98857836 1354.62391249 1203.02527428 C1353.73953657 1250.01740232 1353.24242286 1297.01144127 1352.83999638 1344.00987409 C1352.81378469 1347.07042055 1352.78741408 1350.13096561 1352.7610105 1353.19151041 C1352.6035966 1371.46361242 1352.45033336 1389.73574808 1352.30173892 1408.00792393 C1351.94874385 1451.38828589 1351.54659013 1494.76811818 1351.11051464 1538.1477232 C1351.1009625 1539.09939321 1351.09141036 1540.05106323 1351.08156877 1541.03157173 C1350.26439215 1622.36464771 1349.13121939 1703.6913273 1347.71211956 1785.01610299 C1347.52868935 1795.54151741 1347.35225703 1806.06702888 1347.18003377 1816.59263225 C1346.94588267 1830.89595216 1346.69865251 1845.19894911 1346.42769256 1859.50162259 C1346.40119696 1860.90197623 1346.37471925 1862.3023302 1346.34825986 1863.70268451 C1346.33531171 1864.38789595 1346.32236356 1865.07310739 1346.30902304 1865.77908281 C1346.22098675 1870.48470449 1346.14208528 1875.19040528 1346.06689859 1879.89625032 C1345.96753468 1886.08686356 1345.85072758 1892.27690202 1345.72024479 1898.46693533 C1345.67630016 1900.68490726 1345.63831191 1902.90300789 1345.60723018 1905.12119737 C1345.08751468 1941.34820912 1334.45416637 1976.3181874 1308.99322033 2002.94021893 C1306.73194012 2005.27064537 1306.73194012 2005.27064537 1304.79009533 2007.84646893 C1301.08047197 2012.35817301 1296.33926434 2015.71044603 1291.76665783 2019.30740643 C1290.8462672 2020.05506268 1289.92587658 2020.80271893 1288.97759533 2021.57303143 C1260.31131753 2044.15858363 1226.12908375 2049.64990692 1190.62697124 2049.55908871 C1188.53934347 2049.56117936 1186.45171643 2049.5641451 1184.36409098 2049.56789744 C1178.65148897 2049.57564833 1172.93895503 2049.57104526 1167.22635419 2049.56434153 C1161.00226068 2049.55925178 1154.77817731 2049.56579444 1148.55408525 2049.5708282 C1137.65340994 2049.57804229 1126.75275795 2049.57790589 1115.85208225 2049.57273388 C1104.16213339 2049.56722126 1092.47219615 2049.56607879 1080.78224659 2049.57020855 C1080.04246066 2049.57046689 1079.30267473 2049.57072524 1078.54047104 2049.57099141 C1075.5271798 2049.57205802 1072.51388858 2049.57315544 1069.50059737 2049.57429197 C1041.46727778 2049.5848578 1013.43396597 2049.58559372 985.40064526 2049.57999706 C984.57080768 2049.57983147 983.74097011 2049.57966588 982.88598594 2049.57949527 C982.05481336 2049.57932941 981.22364078 2049.57916355 980.36728115 2049.57899267 C955.03106068 2049.57394356 929.69484342 2049.57264479 904.35862255 2049.57503796 C902.6610854 2049.57519292 900.96354825 2049.57534723 899.2660111 2049.5755009 C892.44407611 2049.57612185 885.62214113 2049.57675918 878.80020615 2049.57742042 C859.73083401 2049.57925431 840.66146187 2049.58039561 821.59208965 2049.5809927 C820.72376201 2049.58101999 819.85543437 2049.58104728 818.96079376 2049.5810754 C791.29783758 2049.58189379 763.63488252 2049.57964105 735.97192669 2049.57529354 C735.07488617 2049.57515304 734.17784566 2049.57501254 733.25362209 2049.57486779 C718.68685517 2049.57257797 704.12008828 2049.57013901 689.55332139 2049.56768744 C631.78214527 2049.55797499 574.01097843 2049.5584258 516.23980236 2049.56814861 C501.68033124 2049.57059105 487.12086012 2049.57301318 472.56138897 2049.57529354 C471.66487307 2049.57543444 470.76835717 2049.57557533 469.84467412 2049.5757205 C442.21019127 2049.58003375 414.57570918 2049.58186125 386.94122601 2049.5809927 C385.6396946 2049.58095195 385.6396946 2049.58095195 384.31186962 2049.58091037 C365.2635777 2049.58028537 346.21528585 2049.57901802 327.16699401 2049.57717169 C320.35120843 2049.57651343 313.53542285 2049.57588726 306.71963726 2049.57527027 C305.02409367 2049.57511549 303.32855008 2049.57495803 301.63300649 2049.57479788 C276.30444621 2049.57241202 250.97588955 2049.574441 225.64732972 2049.57949527 C224.40257336 2049.57974366 224.40257336 2049.57974366 223.1326704 2049.57999706 C222.304368 2049.58016243 221.47606559 2049.58032779 220.62266311 2049.58049817 C192.66915477 2049.58601786 164.71565575 2049.58397879 136.76214874 2049.57343557 C133.75845552 2049.5723309 130.7547623 2049.57125749 127.75106907 2049.57020855 C127.01392664 2049.56994814 126.27678421 2049.56968772 125.51730414 2049.56941942 C113.86049015 2049.56547963 102.2036878 2049.56821579 90.54687487 2049.57374656 C79.07592149 2049.57904621 67.60499385 2049.57699557 56.13404173 2049.56771839 C50.00182916 2049.56296084 43.86966053 2049.56133421 37.73744935 2049.56853035 C32.15233803 2049.57501759 26.56730938 2049.5722078 20.98220401 2049.56216903 C18.98064932 2049.56016457 16.97908768 2049.56146073 14.97753853 2049.56658091 C-23.68312773 2049.65841426 -58.26802754 2040.64629328 -88.23334217 2015.30740643 C-89.09959217 2014.5829533 -89.96584217 2013.85850018 -90.85834217 2013.11209393 C-103.74359703 2002.01162099 -113.20747766 1988.17208706 -121.23334217 1973.30740643 C-121.68322498 1972.52494549 -122.1331078 1971.74248455 -122.59662342 1970.93631268 C-125.68235075 1965.29757317 -127.76928432 1959.30563192 -129.85834217 1953.24490643 C-130.14781727 1952.42498211 -130.43729237 1951.60505779 -130.73553944 1950.76028728 C-136.5981816 1933.15550929 -136.67147728 1915.69120413 -136.61813936 1897.34348352 C-136.61040031 1893.51835252 -136.62027017 1889.693257 -136.62777987 1885.86813107 C-136.63857829 1879.1505223 -136.63830837 1872.43298552 -136.63070684 1865.71537342 C-136.6193816 1855.65882218 -136.62542745 1845.60233145 -136.63477083 1835.54578083 C-136.6501877 1818.40370891 -136.65138309 1801.26166239 -136.6447916 1784.11958599 C-136.63816129 1766.75139862 -136.6380421 1749.3832294 -136.64583874 1732.0150423 C-136.64632674 1730.91745075 -136.64681473 1729.8198592 -136.64731752 1728.6890073 C-136.64932573 1724.21857452 -136.65137884 1719.74814176 -136.65348926 1715.27770902 C-136.67488474 1669.90852176 -136.67694467 1624.53934792 -136.67143222 1579.17015688 C-136.6706765 1572.90214335 -136.66994888 1566.63412982 -136.66925025 1560.36611629 C-136.66911116 1559.12112889 -136.66897207 1557.87614149 -136.66882876 1556.59342721 C-136.66587621 1529.00008324 -136.66888951 1501.40674089 -136.67314654 1473.81339721 C-136.6737287 1470.03670827 -136.67429754 1466.26001932 -136.67486217 1462.48333037 C-136.67637713 1452.35926847 -136.67790404 1442.23520657 -136.67945518 1432.11114468 C-136.69021165 1361.43827708 -136.69491421 1290.76541067 -136.68698502 1220.09254265 C-136.68683513 1218.74695654 -136.68668532 1217.40137042 -136.6865356 1216.05578431 C-136.68487906 1201.2011443 -136.6831274 1186.34650429 -136.68134259 1171.49186429 C-136.68126209 1170.82135935 -136.68118159 1170.15085441 -136.68109865 1169.46003113 C-136.68085459 1167.42735577 -136.6806104 1165.3946804 -136.68036614 1163.36200503 C-136.68028551 1162.69095922 -136.68020488 1162.01991341 -136.6801218 1161.32853288 C-136.67971412 1157.93787858 -136.67930502 1154.54722428 -136.67889345 1151.15656998 C-136.67071463 1083.70919564 -136.66884269 1016.26183039 -136.69933476 895.81410948 C-136.70547414 873.51743998 -136.71155665 851.22077048 -136.71730423 828.92410088 C-136.71747625 828.25842876 -136.71764826 827.59275664 -136.71782549 826.90691265 C-136.72858719 785.21075376 -136.73446086 743.5145961 -136.73486137 701.81843567 C-136.73487416 700.53053496 -136.73488694 699.24263425 -136.73490011 697.91570625 C-136.7351284 669.64386975 -136.73412233 641.3720334 -136.73199105 613.10019698 C-136.73123629 602.98422641 -136.73055808 592.86825584 -136.7299109 582.75228526 C-136.72974821 580.23569111 -136.72958055 577.71909696 -136.72940789 575.20250282 C-136.72668652 535.10038627 -136.73524173 494.99828217 -136.74926199 454.8961683 C-136.76366789 413.38668599 -136.76322182 371.87722735 -136.74588727 330.36774584 C-136.74408309 325.90982183 -136.7423429 321.45189779 -136.74065304 316.99397373 C-136.74023254 315.89992477 -136.73981204 314.8058758 -136.73937879 313.67867384 C-136.73308227 296.35890874 -136.74018315 279.03917619 -136.75286224 261.71941568 C-136.76504802 244.68682605 -136.7629363 227.65428777 -136.74564192 210.62170203 C-136.73592925 200.63805398 -136.73709468 190.65455184 -136.7544719 180.67091337 C-136.76492523 174.03439611 -136.76078627 167.39798973 -136.74495541 160.76148343 C-136.73639316 157.00330985 -136.7338409 153.24542441 -136.74933914 149.48726645 C-136.8795409 115.57218331 -130.45249057 85.14885284 -110.23334217 57.30740643 C-109.66615467 56.51592205 -109.09896717 55.72443768 -108.51459217 54.90896893 C-85.87143989 25.01603543 -52.61412478 5.71438033 -15.51428036 0.53269269 C-10.36200715 0.02380718 -5.17300604 0.06706166 0 0 Z " fill="#4A8AF3" transform="translate(136.23334217071533,-0.3074064254760742)"/>
<path d="M0 0 C1.1026622 0.93663245 2.20409439 1.87471302 3.30502415 2.8133812 C3.91851925 3.33561508 4.53201436 3.85784896 5.16410023 4.39590812 C7.9932897 6.86787306 10.64797182 9.50046325 13.30249023 12.15722656 C14.18184486 13.03154327 14.18184486 13.03154327 15.07896423 13.92352295 C16.99146003 15.82661549 18.90025379 17.73336581 20.80859375 19.640625 C22.14373121 20.97254602 23.47894255 22.304393 24.81422424 23.63616943 C27.59887186 26.41485505 30.38147102 29.19557364 33.1628418 31.97753906 C36.73460141 35.54940095 40.3132293 39.11429662 43.89359951 42.67752457 C46.64638949 45.41923309 49.3946601 48.16543685 52.14164925 50.91295624 C53.46020443 52.23032856 54.78038787 53.54607319 56.10220146 54.86017609 C57.94064637 56.688885 59.7727202 58.52374592 61.60327148 60.36035156 C62.42834198 61.1769928 62.42834198 61.1769928 63.27008057 62.01013184 C67 65.77167459 67 65.77167459 67 68 C67.66 68 68.32 68 69 68 C70.48774719 69.50719357 70.48774719 69.50719357 72.20043945 71.56834412 C75.57205006 75.53044113 79.10462872 79.24064278 82.79296875 82.90649414 C83.43921204 83.55288629 84.08545532 84.19927843 84.75128174 84.86525822 C86.89432068 87.00760859 89.04090083 89.14637365 91.1875 91.28515625 C92.73402834 92.82976332 94.28032761 94.37459978 95.82641602 95.91964722 C99.14521464 99.23529463 102.46555814 102.5493843 105.78710938 105.86227417 C111.0431235 111.104723 116.29528301 116.35102223 121.546875 121.59790039 C132.69495641 132.73489931 143.84725238 143.86767432 155 155 C167.04174299 167.01969319 179.08274194 179.0401274 191.11886597 191.06544781 C196.33562745 196.2772376 201.55481515 201.48658162 206.77589417 206.69404602 C210.02713116 209.93780506 213.27627832 213.18365127 216.52487183 216.43005753 C218.02717783 217.93049719 219.5303452 219.43007501 221.03445435 220.92870712 C223.09432112 222.9813112 225.15102993 225.03703095 227.20703125 227.09350586 C227.79663635 227.679516 228.38624146 228.26552614 228.99371338 228.86929417 C231.93618275 231.81898497 234.75496707 234.82943801 237.48101807 237.98101807 C240.86478976 241.89034969 244.43119342 245.5659474 248.09667969 249.21020508 C249.11504725 250.22879592 249.11504725 250.22879592 250.15398788 251.26796436 C252.40758294 253.5208703 254.66472136 255.77019106 256.921875 258.01953125 C258.54721998 259.64295516 260.17233603 261.2666083 261.79724121 262.89047241 C265.28628758 266.37636658 268.7768794 269.86070306 272.26867676 273.34384155 C277.79352785 278.8551325 283.31452904 284.37026934 288.83496094 289.88598633 C296.57735294 297.62105488 304.32113349 305.35473005 312.06640625 313.08691406 C312.55705362 313.57673362 313.04770099 314.06655318 313.55321646 314.57121575 C317.03542766 318.04752723 320.51770601 321.52377144 324 325 C327.97791092 328.97098223 331.95579144 332.94199491 335.93359375 336.91308594 C336.42363813 337.40230219 336.91368251 337.89151844 337.41857672 338.39555943 C345.60303847 346.56631316 353.78549878 354.73906796 361.96660233 362.91318417 C367.45097682 368.39258541 372.93777841 373.86954097 378.4264679 379.34461975 C381.84377516 382.75445169 385.25899502 386.16636849 388.67366028 389.57884598 C390.25336939 391.15668796 391.83394029 392.73366769 393.41545105 394.30970383 C395.58041201 396.46740805 397.74222209 398.62822286 399.90332031 400.78979492 C400.524053 401.40693265 401.14478569 402.02407038 401.78432846 402.65990925 C405.455596 406.33975973 408.90903789 410.15174822 412.30899918 414.08273327 C414.82727293 416.93796694 417.49434672 419.62624961 420.19468689 422.30821228 C420.77644875 422.890123 421.3582106 423.47203371 421.95760161 424.07157809 C423.88204666 425.99533591 425.81002762 427.91550839 427.73803711 429.83569336 C429.12843768 431.22417232 430.51860894 432.61288093 431.90856934 434.00180054 C434.88852432 436.9786075 437.87002233 439.95385707 440.85273552 442.92790031 C445.56494504 447.62654912 450.27330341 452.32904436 454.98109436 457.03211975 C464.96359968 467.00354942 474.950345 476.97072768 484.9375 486.9375 C495.74411964 497.72210326 506.55000517 508.50743616 517.35104567 519.29762751 C522.03621384 523.97779993 526.72381239 528.65552057 531.41325653 533.33140838 C534.31887308 536.22959848 537.22244586 539.12982934 540.12545013 542.03063583 C541.47751113 543.38081536 542.83044083 544.73012558 544.18427467 546.07852745 C546.02320187 547.91030426 547.85908302 549.74507909 549.69419861 551.58067322 C550.23804748 552.12092713 550.78189635 552.66118104 551.34222549 553.21780628 C555 556.88590665 555 556.88590665 555 558 C500.41657105 558.06872402 445.8331465 558.12155818 391.24968277 558.15319599 C384.80000003 558.15694794 378.35031738 558.16083092 371.90063477 558.16479492 C370.6166637 558.16558185 369.33269263 558.16636878 368.00981335 558.16717956 C347.24245305 558.18021985 326.47511776 558.20386609 305.70777228 558.23145839 C284.3854781 558.25955093 263.063197 558.27618439 241.74088508 558.28226548 C228.59265185 558.28637394 215.44448932 558.29933228 202.29627786 558.3237494 C193.2699595 558.33965412 184.24367749 558.34438966 175.21734615 558.34050413 C170.01608451 558.33858995 164.8149461 558.34144469 159.61370659 558.35761642 C154.83917312 558.37235198 150.06484426 558.37286503 145.29030082 558.36269668 C143.57529972 558.36144232 141.86028516 558.36513132 140.14531001 558.37464955 C124.7104312 558.45523844 109.15711737 557.09224245 94.5 551.9375 C93.64035645 551.64222412 92.78071289 551.34694824 91.89501953 551.04272461 C78.22464269 546.14115033 65.28124824 539.16389685 54 530 C53.49307617 529.59700684 52.98615234 529.19401367 52.46386719 528.77880859 C22.83742766 505.15052344 4.61727269 471.73760283 0.19332567 434.05769214 C-0.43497765 427.37024704 -0.26504802 420.62540524 -0.24050903 413.91604614 C-0.24138284 412.12204899 -0.24313703 410.32805209 -0.24568737 408.53405654 C-0.25013048 403.64017432 -0.24219929 398.74638069 -0.23213124 393.85250974 C-0.22345497 388.56163631 -0.22641985 383.27076746 -0.22793579 377.97988892 C-0.22898201 368.82496085 -0.22273297 359.6700614 -0.21146011 350.51514053 C-0.19517233 337.27883606 -0.18999375 324.04254536 -0.18748413 310.80623196 C-0.18311217 289.32865853 -0.16981661 267.85110032 -0.15087891 246.37353516 C-0.13250719 225.51611405 -0.11835701 204.6586971 -0.10986328 183.80126953 C-0.10933783 182.51456557 -0.10881239 181.22786161 -0.10827102 179.90216662 C-0.10566085 173.44683675 -0.10313346 166.99150684 -0.10064721 160.53617692 C-0.07993024 107.02410742 -0.04471831 53.51205446 0 0 Z " fill="#A6C5FA" transform="translate(926,0)"/>
<path d="M0 0 C244.53 0 489.06 0 741 0 C741 31.02 741 62.04 741 94 C496.47 94 251.94 94 0 94 C0 62.98 0 31.96 0 0 Z " fill="#EFF0F1" transform="translate(370,1396)"/>
<path d="M0 0 C244.53 0 489.06 0 741 0 C741 31.02 741 62.04 741 94 C496.47 94 251.94 94 0 94 C0 62.98 0 31.96 0 0 Z " fill="#F0F0F1" transform="translate(370,1210)"/>
<path d="M0 0 C244.53 0 489.06 0 741 0 C741 30.69 741 61.38 741 93 C496.47 93 251.94 93 0 93 C0 62.31 0 31.62 0 0 Z " fill="#F1F1F2" transform="translate(370,1024)"/>
<path d="M0 0 C183.48 0 366.96 0 556 0 C556 30.69 556 61.38 556 93 C372.52 93 189.04 93 0 93 C0 62.31 0 31.62 0 0 Z " fill="#F0F0F1" transform="translate(370,1583)"/>
<path d="M0 0 C0.33 0 0.66 0 1 0 C2.32320249 35.48218371 -8.14172264 70.50403208 -32.375 97.125 C-33.16648437 97.95257812 -33.95796875 98.78015625 -34.7734375 99.6328125 C-37.03471771 101.96323894 -37.03471771 101.96323894 -38.9765625 104.5390625 C-42.68618586 109.05076658 -47.42739349 112.40303961 -52 116 C-52.92039062 116.74765625 -53.84078125 117.4953125 -54.7890625 118.265625 C-83.4553403 140.85117721 -117.63757408 146.34250049 -153.13968658 146.25168228 C-155.22731436 146.25377294 -157.3149414 146.25673868 -159.40256685 146.26049101 C-165.11516886 146.26824191 -170.8277028 146.26363884 -176.54030364 146.25693511 C-182.76439715 146.25184535 -188.98848051 146.25838801 -195.21257257 146.26342177 C-206.11324789 146.27063587 -217.01389988 146.27049946 -227.91457558 146.26532745 C-239.60452444 146.25981484 -251.29446168 146.25867236 -262.98441124 146.26280212 C-263.72419717 146.26306047 -264.4639831 146.26331881 -265.22618679 146.26358499 C-268.23947803 146.26465159 -271.25276925 146.26574902 -274.26606046 146.26688554 C-302.29938005 146.27745137 -330.33269185 146.27818729 -358.36601257 146.27259064 C-359.19585015 146.27242505 -360.02568772 146.27225946 -360.88067189 146.27208885 C-362.12743076 146.27184006 -362.12743076 146.27184006 -363.39937668 146.27158624 C-388.73559715 146.26653713 -414.07181441 146.26523837 -439.40803528 146.26763153 C-441.10557243 146.26778649 -442.80310958 146.2679408 -444.50064673 146.26809447 C-451.32258172 146.26871542 -458.1445167 146.26935276 -464.96645168 146.270014 C-484.03582382 146.27184789 -503.10519596 146.27298918 -522.17456818 146.27358627 C-523.04289582 146.27361356 -523.91122346 146.27364086 -524.80586407 146.27366897 C-552.46882025 146.27448736 -580.13177531 146.27223462 -607.79473114 146.26788712 C-608.69177166 146.26774662 -609.58881217 146.26760612 -610.51303574 146.26746136 C-625.07980265 146.26517155 -639.64656955 146.26273259 -654.21333644 146.26028102 C-711.98451255 146.25056857 -769.7556794 146.25101937 -827.52685547 146.26074219 C-842.08632659 146.26318463 -856.64579771 146.26560675 -871.20526886 146.26788712 C-872.10178476 146.26802801 -872.99830066 146.26816891 -873.92198371 146.26831407 C-901.55646656 146.27262733 -929.19094864 146.27445483 -956.82543182 146.27358627 C-958.12696323 146.27354552 -958.12696323 146.27354552 -959.45478821 146.27350394 C-978.50308013 146.27287895 -997.55137198 146.2716116 -1016.59966382 146.26976527 C-1023.4154494 146.269107 -1030.23123498 146.26848084 -1037.04702057 146.26786385 C-1038.74256416 146.26770907 -1040.43810775 146.26755161 -1042.13365134 146.26739145 C-1067.46221162 146.2650056 -1092.79076828 146.26703457 -1118.11932811 146.27208885 C-1119.36408447 146.27233723 -1119.36408447 146.27233723 -1120.63398743 146.27259064 C-1121.46228983 146.272756 -1122.29059224 146.27292137 -1123.14399472 146.27309174 C-1151.09750306 146.27861143 -1179.05100208 146.27657237 -1207.00450909 146.26602915 C-1210.0082023 146.26492447 -1213.01189553 146.26385106 -1216.01558876 146.26280212 C-1216.75273119 146.26254171 -1217.48987362 146.2622813 -1218.24935369 146.26201299 C-1229.90616768 146.2580732 -1241.56297003 146.26080937 -1253.21978296 146.26634014 C-1264.69073634 146.27163979 -1276.16166398 146.26958914 -1287.6326161 146.26031196 C-1293.76482866 146.25555442 -1299.8969973 146.25392779 -1306.02920848 146.26112393 C-1311.6143198 146.26761117 -1317.19934845 146.26480137 -1322.78445382 146.2547626 C-1324.78600851 146.25275815 -1326.78757014 146.2540543 -1328.7891193 146.25917448 C-1367.44978556 146.35100784 -1402.03468537 137.33888685 -1432 112 C-1432.86625 111.27554687 -1433.7325 110.55109375 -1434.625 109.8046875 C-1447.51025486 98.70421456 -1456.97413549 84.86468063 -1465 70 C-1465.44988281 69.21753906 -1465.89976563 68.43507813 -1466.36328125 67.62890625 C-1477.72778366 46.86185135 -1480.61302662 24.22689736 -1480 1 C-1479.67 1 -1479.34 1 -1479 1 C-1478.89042969 2.0415625 -1478.78085938 3.083125 -1478.66796875 4.15625 C-1477.17458802 17.86922661 -1475.68985286 31.30725132 -1470 44 C-1469.43661269 45.54134263 -1468.87414742 47.08302253 -1468.3125 48.625 C-1461.6866726 65.08603994 -1451.09049097 79.16789899 -1439 92 C-1438.17628906 92.90298828 -1438.17628906 92.90298828 -1437.3359375 93.82421875 C-1416.02828601 116.33895394 -1383.56631226 130.85226436 -1352.72095109 132.0915675 C-1350.44073625 132.12687497 -1348.16254208 132.13310459 -1345.88206702 132.12649983 C-1345.01630959 132.12802638 -1344.15055216 132.12955293 -1343.25855965 132.13112573 C-1340.367835 132.13501149 -1337.47716304 132.13181537 -1334.58643818 132.12863445 C-1332.47994039 132.12998162 -1330.37344284 132.1317658 -1328.26694575 132.13394669 C-1322.46469036 132.13867792 -1316.66245066 132.13717461 -1310.86019451 132.13466892 C-1304.55284918 132.13303692 -1298.24550723 132.13717577 -1291.93816298 132.14057809 C-1280.87900314 132.14573521 -1269.81984779 132.1471835 -1258.76068687 132.14612198 C-1246.89483904 132.14499737 -1235.02899433 132.14603215 -1223.16314697 132.14969444 C-1222.41353008 132.1499241 -1221.66391319 132.15015375 -1220.89158064 132.15039036 C-1217.83846972 132.15133201 -1214.7853588 132.15228769 -1211.73224789 132.15326155 C-1179.88450154 132.16340522 -1148.03675695 132.16646751 -1116.18900917 132.16705366 C-1112.76111323 132.16711841 -1109.3332173 132.16718635 -1105.90532136 132.16725707 C-1105.05468118 132.16727408 -1104.20404099 132.16729108 -1103.32762383 132.1673086 C-1084.47707012 132.16771707 -1065.62651674 132.16990701 -1046.7759632 132.17241292 C-1039.01384289 132.17344127 -1031.25172258 132.1744313 -1023.48960227 132.17542917 C-1022.63195365 132.17553975 -1021.77430503 132.17565034 -1020.89066705 132.17576428 C-971.74326496 132.18208836 -922.59586309 132.1862134 -873.44846058 132.18575573 C-871.60920548 132.18573995 -869.76995039 132.18572422 -867.9306953 132.18570852 C-859.62661288 132.18563514 -851.32253047 132.18554697 -843.01844805 132.18545464 C-839.31544708 132.18541351 -835.61244611 132.18537337 -831.90944514 132.18533332 C-830.05602656 132.18531293 -828.20260798 132.18529191 -826.3491894 132.18527026 C-767.74019595 132.18459 -709.13120855 132.19190772 -650.5222168 132.20581055 C-635.75523029 132.20931156 -620.98824377 132.21278102 -606.22125721 132.21607494 C-605.31199616 132.21627782 -604.40273511 132.21648069 -603.46592069 132.21668971 C-575.44184547 132.22290465 -547.41777075 132.22667026 -519.39369488 132.22793293 C-518.07393472 132.22799286 -518.07393472 132.22799286 -516.72751274 132.22805399 C-497.41292386 132.22890727 -478.09833501 132.22916846 -458.78374612 132.22888362 C-451.8726424 132.22878713 -444.96153867 132.22873509 -438.05043495 132.22870489 C-436.33112844 132.22869697 -434.61182194 132.22868677 -432.89251543 132.22867426 C-405.49805699 132.22849795 -378.10360372 132.23419566 -350.70914676 132.24282808 C-323.11775104 132.25147837 -295.52636247 132.25366896 -267.93496596 132.24706676 C-264.12126343 132.24615448 -260.30756089 132.24531119 -256.49385834 132.24450874 C-255.74627902 132.24434866 -254.9986997 132.24418857 -254.22846646 132.24402363 C-242.39734193 132.24167179 -230.56622979 132.2460255 -218.73510759 132.25317993 C-207.09785403 132.26007651 -195.4606226 132.25965268 -183.82336898 132.25198779 C-177.5998468 132.24809398 -171.37636856 132.24736603 -165.15284941 132.25544515 C-159.48830069 132.26273432 -153.82383243 132.26077524 -148.15928726 132.25152128 C-146.12559248 132.24980356 -144.09189137 132.25141657 -142.05820305 132.25682249 C-127.46741692 132.29300189 -113.26866382 131.94681542 -99.3125 127.1875 C-98.50780273 126.92179199 -97.70310547 126.65608398 -96.87402344 126.38232422 C-58.65106838 113.56205969 -30.66203382 88.29409838 -12.45703125 52.2578125 C-9.12660825 45.37585958 -6.98622569 38.36881133 -5 31 C-4.65195313 29.99066406 -4.30390625 28.98132812 -3.9453125 27.94140625 C-1.08135302 19.02999514 -0.63609828 9.29038273 0 0 Z " fill="#3D73DE" transform="translate(1480,1903)"/>
<path d="M0 0 C1.37761744 -0.00074013 2.75523471 -0.00191924 4.13285145 -0.0034965 C7.92523167 -0.00656402 11.71758506 -0.00339163 15.50996328 0.00078164 C19.63312685 0.0042166 23.75628771 0.00184489 27.87945181 0.00020415 C35.10790785 -0.00187 42.33635567 -0.0002251 49.56481075 0.00384235 C60.31328444 0.00987374 71.06175293 0.01017849 81.810228 0.00930037 C99.89027125 0.00798593 117.97031086 0.0113299 136.05035305 0.01731777 C153.95497182 0.02323236 171.85958906 0.02708323 189.76420879 0.02817059 C191.43334172 0.0282737 191.43334172 0.0282737 193.13619451 0.02837889 C198.78718786 0.02871722 204.43818122 0.0290186 210.08917458 0.02930576 C250.12765277 0.03140685 290.16612898 0.03814608 330.20460606 0.04760838 C369.10434553 0.05679095 408.00408446 0.06385857 446.90382481 0.06811619 C449.34946011 0.06838683 451.7950954 0.06865753 454.2407307 0.0689283 C474.11215792 0.07111703 493.98358516 0.07315963 513.85501239 0.07516678 C605.76931568 0.08455618 697.68361378 0.10462608 789.5979166 0.12304783 C789.5979166 141.03304783 789.5979166 281.94304783 789.5979166 427.12304783 C789.2679166 427.12304783 788.9379166 427.12304783 788.5979166 427.12304783 C788.5979166 290.17304783 788.5979166 153.22304783 788.5979166 12.12304783 C650.4782769 12.21069814 650.4782769 12.21069814 512.35866678 12.3258642 C492.35148513 12.34486093 472.34430335 12.36371859 452.33712117 12.38214753 C449.91715166 12.38437697 447.49718215 12.38661079 445.07721265 12.38884904 C406.51049423 12.42448345 367.94377673 12.45048308 329.37704777 12.47143751 C289.73365052 12.4930281 250.09027271 12.52439745 210.4468933 12.56803896 C204.8452042 12.57420104 199.24351498 12.58025154 193.64182568 12.58623409 C191.98811611 12.58800541 191.98811611 12.58800541 190.30099826 12.58981252 C172.5672536 12.60852074 154.8335183 12.61694644 137.09976498 12.62150907 C119.26347485 12.62631817 101.42722038 12.64200255 83.59094938 12.66871349 C72.99923214 12.68424678 62.40758524 12.69151599 51.81585724 12.68681712 C44.73144907 12.68449757 37.64710714 12.69309199 30.56271983 12.71037194 C26.53198216 12.7198967 22.5013909 12.72485577 18.47064736 12.71644346 C-0.91921875 12.67972818 -19.90190454 12.93569104 -38.5895834 18.81054783 C-39.41071621 19.06328465 -40.23184902 19.31602146 -41.07786465 19.57641697 C-49.31825438 22.22887214 -56.84954744 25.9348423 -64.4020834 30.12304783 C-65.48102871 30.70054783 -66.55997402 31.27804783 -67.67161465 31.87304783 C-74.92408953 35.89495945 -81.17058002 40.67048237 -87.4020834 46.12304783 C-88.3817709 46.95707127 -89.3614584 47.7910947 -90.3708334 48.65039158 C-102.57508532 59.24120003 -111.72472931 71.96572516 -119.4020834 86.12304783 C-119.72160976 86.71134373 -120.04113613 87.29963963 -120.37034512 87.90576267 C-129.53441021 105.175211 -133.97703762 124.73492509 -135.4020834 144.12304783 C-135.7320834 144.12304783 -136.0620834 144.12304783 -136.4020834 144.12304783 C-137.5478371 112.42386198 -129.12798632 82.90831892 -110.4020834 57.12304783 C-109.8348959 56.33156345 -109.2677084 55.54007908 -108.6833334 54.72461033 C-86.05380651 24.84966475 -52.77939205 5.5103621 -15.69329964 0.33710624 C-10.48056503 -0.14989697 -5.23048715 -0.01082019 0 0 Z " fill="#73A4F6" transform="translate(136.40208339691162,-0.1230478286743164)"/>
<path d="M0 0 C0.33 0 0.66 0 1 0 C1.13277344 1.134375 1.26554688 2.26875 1.40234375 3.4375 C1.58071331 4.95833519 1.75909962 6.47916842 1.9375 8 C2.02451172 8.74378906 2.11152344 9.48757813 2.20117188 10.25390625 C2.77853831 15.17221292 3.38027284 20.08684772 4 25 C3.34 25 2.68 25 2 25 C1.67 25.99 1.34 26.98 1 28 C-0.05838127 21.99139451 -0.11662571 16.15372439 -0.0625 10.0625 C-0.05798828 9.09248047 -0.05347656 8.12246094 -0.04882812 7.12304688 C-0.0371315 4.7486324 -0.02074086 2.37434979 0 0 Z " fill="#3F7DE4" transform="translate(0,1904)"/>
</svg>
